<?xml version="1.0" encoding="UTF-8"?>
<!DOCTYPE svg PUBLIC "-//W3C//DTD SVG 1.1//EN" "http://www.w3.org/Graphics/SVG/1.1/DTD/svg11.dtd">
<svg xmlns="http://www.w3.org/2000/svg" version="1.1" width="64px" height="64px" style="shape-rendering:geometricPrecision; text-rendering:geometricPrecision; image-rendering:optimizeQuality; fill-rule:evenodd; clip-rule:evenodd" xmlns:xlink="http://www.w3.org/1999/xlink">
<g><path style="opacity:0.977" fill="#dcf8fe" d="M 63.5,13.5 C 63.5,15.1667 63.5,16.8333 63.5,18.5C 56.4567,19.5267 55.9567,21.5267 62,24.5C 63.5086,29.4929 61.6752,31.4929 56.5,30.5C 56.5,29.8333 56.5,29.1667 56.5,28.5C 52.315,10.1632 40.9816,2.99654 22.5,7C 16.3695,9.63592 11.7028,13.8026 8.5,19.5C 6.14316,19.6633 3.80982,19.4966 1.5,19C 0.166667,17 0.166667,15 1.5,13C 4.16667,12.6667 6.83333,12.3333 9.5,12C 9.95735,11.586 10.2907,11.086 10.5,10.5C 9.00943,8.98836 7.1761,7.98836 5,7.5C 4.25711,5.55942 4.42378,3.72609 5.5,2C 23.1667,1.33333 40.8333,1.33333 58.5,2C 60.6365,7.54357 58.6365,9.8769 52.5,9C 51.1667,10 51.1667,11 52.5,12C 56.2519,12.2401 59.9186,12.7401 63.5,13.5 Z"/></g>
<g><path style="opacity:0.998" fill="#33b3ef" d="M 56.5,28.5 C 54.1078,27.2872 51.4411,26.6205 48.5,26.5C 45.9746,26.5034 43.6413,26.8367 41.5,27.5C 35.7343,25.118 30.0677,22.4513 24.5,19.5C 23.0815,20.0047 22.4148,21.0047 22.5,22.5C 17.4053,22.7787 12.4053,22.4454 7.5,21.5C 7.83333,20.8333 8.16667,20.1667 8.5,19.5C 11.7028,13.8026 16.3695,9.63592 22.5,7C 40.9816,2.99654 52.315,10.1632 56.5,28.5 Z"/></g>
<g><path style="opacity:1" fill="#fdfefe" d="M 41.5,27.5 C 42.172,28.2674 43.0053,28.9341 44,29.5C 44.6667,30.1667 44.6667,30.8333 44,31.5C 39.6902,33.7342 35.5235,36.0676 31.5,38.5C 29.1447,39.0944 26.978,40.0944 25,41.5C 22.9803,40.9681 22.147,39.6348 22.5,37.5C 22.5,35.1667 22.5,32.8333 22.5,30.5C 22.5,27.8333 22.5,25.1667 22.5,22.5C 22.4148,21.0047 23.0815,20.0047 24.5,19.5C 30.0677,22.4513 35.7343,25.118 41.5,27.5 Z"/></g>
<g><path style="opacity:0.995" fill="#2aa7ed" d="M 7.5,21.5 C 12.4053,22.4454 17.4053,22.7787 22.5,22.5C 22.5,25.1667 22.5,27.8333 22.5,30.5C 17.1667,30.5 11.8333,30.5 6.5,30.5C 6.36772,27.4299 6.70105,24.4299 7.5,21.5 Z"/></g>
<g><path style="opacity:0.969" fill="#dbf8fe" d="M 6.5,31.5 C 6.72148,34.0673 7.38815,36.4006 8.5,38.5C 8.46095,41.089 9.46095,43.089 11.5,44.5C 11.7376,46.4044 12.7376,47.7377 14.5,48.5C 22.7262,55.9386 32.0595,57.4386 42.5,53C 44.7472,51.7225 46.7472,50.2225 48.5,48.5C 50.2624,47.7377 51.2624,46.4044 51.5,44.5C 52.5,43.8333 53.5,43.1667 54.5,42.5C 56.8568,42.3367 59.1902,42.5034 61.5,43C 62.8333,45 62.8333,47 61.5,49C 59.1667,49.3333 56.8333,49.6667 54.5,50C 54.0426,50.414 53.7093,50.914 53.5,51.5C 54.6554,52.9505 56.1554,53.9505 58,54.5C 58.7429,56.4406 58.5762,58.2739 57.5,60C 40.1667,60.6667 22.8333,60.6667 5.5,60C 4.42378,58.2739 4.25711,56.4406 5,54.5C 7.1761,54.0116 9.00943,53.0116 10.5,51.5C 10.2907,50.914 9.95735,50.414 9.5,50C 6.57379,49.7822 3.74046,49.2822 1,48.5C 0.333333,46.8333 0.333333,45.1667 1,43.5C 7,41.5 7,39.5 1,37.5C -0.508557,32.5071 1.32478,30.5071 6.5,31.5 Z"/></g>
<g><path style="opacity:1" fill="#289ceb" d="M 6.5,30.5 C 11.8333,30.5 17.1667,30.5 22.5,30.5C 22.5,32.8333 22.5,35.1667 22.5,37.5C 17.6367,37.1805 12.97,37.5139 8.5,38.5C 7.38815,36.4006 6.72148,34.0673 6.5,31.5C 6.5,31.1667 6.5,30.8333 6.5,30.5 Z"/></g>
<g><path style="opacity:0.992" fill="#2e9eeb" d="M 56.5,28.5 C 56.5,29.1667 56.5,29.8333 56.5,30.5C 56.8016,33.0593 56.4682,35.3926 55.5,37.5C 47.5856,38.4672 39.5856,38.8005 31.5,38.5C 35.5235,36.0676 39.6902,33.7342 44,31.5C 44.6667,30.8333 44.6667,30.1667 44,29.5C 43.0053,28.9341 42.172,28.2674 41.5,27.5C 43.6413,26.8367 45.9746,26.5034 48.5,26.5C 51.4411,26.6205 54.1078,27.2872 56.5,28.5 Z"/></g>
<g><path style="opacity:1" fill="#2790e8" d="M 22.5,37.5 C 22.147,39.6348 22.9803,40.9681 25,41.5C 26.978,40.0944 29.1447,39.0944 31.5,38.5C 39.5856,38.8005 47.5856,38.4672 55.5,37.5C 55.3713,39.2161 55.038,40.8828 54.5,42.5C 53.5,43.1667 52.5,43.8333 51.5,44.5C 38.1667,43.1667 24.8333,43.1667 11.5,44.5C 9.46095,43.089 8.46095,41.089 8.5,38.5C 12.97,37.5139 17.6367,37.1805 22.5,37.5 Z"/></g>
<g><path style="opacity:1" fill="#2588e6" d="M 51.5,44.5 C 51.2624,46.4044 50.2624,47.7377 48.5,48.5C 37.1667,47.1667 25.8333,47.1667 14.5,48.5C 12.7376,47.7377 11.7376,46.4044 11.5,44.5C 24.8333,43.1667 38.1667,43.1667 51.5,44.5 Z"/></g>
<g><path style="opacity:1" fill="#277ee4" d="M 48.5,48.5 C 46.7472,50.2225 44.7472,51.7225 42.5,53C 32.0595,57.4386 22.7262,55.9386 14.5,48.5C 25.8333,47.1667 37.1667,47.1667 48.5,48.5 Z"/></g>
</svg>
