<?xml version="1.0" encoding="UTF-8"?>
<!DOCTYPE svg PUBLIC "-//W3C//DTD SVG 1.1//EN" "http://www.w3.org/Graphics/SVG/1.1/DTD/svg11.dtd">
<svg xmlns="http://www.w3.org/2000/svg" version="1.1" width="64px" height="64px" style="shape-rendering:geometricPrecision; text-rendering:geometricPrecision; image-rendering:optimizeQuality; fill-rule:evenodd; clip-rule:evenodd" xmlns:xlink="http://www.w3.org/1999/xlink">
<g><path style="opacity:0.977" fill="#dcf8fd" d="M 63.5,13.5 C 63.5,15.1667 63.5,16.8333 63.5,18.5C 56.4567,19.5267 55.9567,21.5267 62,24.5C 63.5086,29.4929 61.6752,31.4929 56.5,30.5C 56.7847,27.1709 56.1181,24.1709 54.5,21.5C 48.9259,9.04189 39.2593,3.87522 25.5,6C 17.865,8.14644 12.1983,12.6464 8.5,19.5C 6.14316,19.6633 3.80982,19.4966 1.5,19C 0.166667,17 0.166667,15 1.5,13C 4.16667,12.6667 6.83333,12.3333 9.5,12C 9.95735,11.586 10.2907,11.086 10.5,10.5C 9.00943,8.98836 7.1761,7.98836 5,7.5C 4.25711,5.55942 4.42378,3.72609 5.5,2C 23.1667,1.33333 40.8333,1.33333 58.5,2C 60.6365,7.54357 58.6365,9.8769 52.5,9C 51.1667,10 51.1667,11 52.5,12C 56.2519,12.2401 59.9186,12.7401 63.5,13.5 Z"/></g>
<g><path style="opacity:1" fill="#42d178" d="M 54.5,21.5 C 50.7016,22.4834 46.7016,22.8168 42.5,22.5C 39.7094,18.9298 36.0427,16.5964 31.5,15.5C 31.5,20.1667 31.5,24.8333 31.5,29.5C 23.1667,29.5 14.8333,29.5 6.5,29.5C 6.31069,25.963 6.97736,22.6297 8.5,19.5C 12.1983,12.6464 17.865,8.14644 25.5,6C 39.2593,3.87522 48.9259,9.04189 54.5,21.5 Z"/></g>
<g><path style="opacity:1" fill="#fafdfb" d="M 42.5,22.5 C 42.7852,24.288 42.4519,25.9547 41.5,27.5C 39.5866,26.627 37.7533,25.627 36,24.5C 35.6667,29.8333 35.3333,35.1667 35,40.5C 34.34,42.3237 33.1733,43.657 31.5,44.5C 29.1667,45.8333 26.8333,45.8333 24.5,44.5C 19.6548,40.7526 19.3215,36.5859 23.5,32C 25.9554,30.3695 28.4554,30.2028 31,31.5C 31.4643,30.9056 31.631,30.2389 31.5,29.5C 31.5,24.8333 31.5,20.1667 31.5,15.5C 36.0427,16.5964 39.7094,18.9298 42.5,22.5 Z"/></g>
<g><path style="opacity:0.99" fill="#3dc475" d="M 54.5,21.5 C 56.1181,24.1709 56.7847,27.1709 56.5,30.5C 56.6684,34.6575 56.0017,38.6575 54.5,42.5C 53.1667,43.1667 52.1667,44.1667 51.5,45.5C 44.6457,45.824 37.979,45.4907 31.5,44.5C 33.1733,43.657 34.34,42.3237 35,40.5C 35.3333,35.1667 35.6667,29.8333 36,24.5C 37.7533,25.627 39.5866,26.627 41.5,27.5C 42.4519,25.9547 42.7852,24.288 42.5,22.5C 46.7016,22.8168 50.7016,22.4834 54.5,21.5 Z"/></g>
<g><path style="opacity:0.969" fill="#dcf8fd" d="M 6.5,31.5 C 6.98133,36.612 8.648,41.2787 11.5,45.5C 19.893,55.6811 30.2263,58.1811 42.5,53C 46.2748,51.3886 49.2748,48.8886 51.5,45.5C 52.1667,44.1667 53.1667,43.1667 54.5,42.5C 56.8568,42.3367 59.1902,42.5034 61.5,43C 62.8333,45 62.8333,47 61.5,49C 59.1667,49.3333 56.8333,49.6667 54.5,50C 54.0426,50.414 53.7093,50.914 53.5,51.5C 54.6554,52.9505 56.1554,53.9505 58,54.5C 58.7429,56.4406 58.5762,58.2739 57.5,60C 40.1667,60.6667 22.8333,60.6667 5.5,60C 4.42378,58.2739 4.25711,56.4406 5,54.5C 7.1761,54.0116 9.00943,53.0116 10.5,51.5C 10.2907,50.914 9.95735,50.414 9.5,50C 6.57379,49.7822 3.74046,49.2822 1,48.5C 0.333333,46.8333 0.333333,45.1667 1,43.5C 7,41.5 7,39.5 1,37.5C -0.508557,32.5071 1.32478,30.5071 6.5,31.5 Z"/></g>
<g><path style="opacity:1" fill="#3dc276" d="M 6.5,29.5 C 14.8333,29.5 23.1667,29.5 31.5,29.5C 31.631,30.2389 31.4643,30.9056 31,31.5C 28.4554,30.2028 25.9554,30.3695 23.5,32C 19.3215,36.5859 19.6548,40.7526 24.5,44.5C 20.3656,45.4849 16.0323,45.8182 11.5,45.5C 8.648,41.2787 6.98133,36.612 6.5,31.5C 6.5,30.8333 6.5,30.1667 6.5,29.5 Z"/></g>
<g><path style="opacity:1" fill="#3cba76" d="M 24.5,44.5 C 26.8333,45.8333 29.1667,45.8333 31.5,44.5C 37.979,45.4907 44.6457,45.824 51.5,45.5C 49.2748,48.8886 46.2748,51.3886 42.5,53C 30.2263,58.1811 19.893,55.6811 11.5,45.5C 16.0323,45.8182 20.3656,45.4849 24.5,44.5 Z"/></g>
</svg>
