<?xml version="1.0" encoding="UTF-8"?>
<!DOCTYPE svg PUBLIC "-//W3C//DTD SVG 1.1//EN" "http://www.w3.org/Graphics/SVG/1.1/DTD/svg11.dtd">
<svg xmlns="http://www.w3.org/2000/svg" version="1.1" width="64px" height="64px" style="shape-rendering:geometricPrecision; text-rendering:geometricPrecision; image-rendering:optimizeQuality; fill-rule:evenodd; clip-rule:evenodd" xmlns:xlink="http://www.w3.org/1999/xlink">
<g><path style="opacity:0.977" fill="#fef4dd" d="M 63.5,18.5 C 63.5,20.5 63.5,22.5 63.5,24.5C 60.272,25.4137 56.9387,25.7471 53.5,25.5C 53.5,23.8333 53.5,22.1667 53.5,20.5C 53.9804,17.3148 53.3137,14.4815 51.5,12C 38.1667,11.3333 24.8333,11.3333 11.5,12C 9.77099,13.7889 9.10433,15.9556 9.5,18.5C 6.93562,18.0213 4.43562,17.3547 2,16.5C 1.33333,14.5 1.33333,12.5 2,10.5C 7.41711,9.69113 12.9171,9.19113 18.5,9C 19.8333,8 19.8333,7 18.5,6C 16.5273,5.50454 14.5273,5.33788 12.5,5.5C 12.5,3.83333 12.5,2.16667 12.5,0.5C 25.1667,0.5 37.8333,0.5 50.5,0.5C 50.5,2.16667 50.5,3.83333 50.5,5.5C 48.4727,5.33788 46.4727,5.50454 44.5,6C 43.1667,6.66667 43.1667,7.33333 44.5,8C 49.8229,8.49935 55.1563,8.66602 60.5,8.5C 60.5,10.1667 60.5,11.8333 60.5,13.5C 57.8338,13.0658 56.6671,14.0658 57,16.5C 59.154,17.2301 61.3206,17.8968 63.5,18.5 Z"/></g>
<g><path style="opacity:1" fill="#40d177" d="M 53.5,20.5 C 38.8333,20.5 24.1667,20.5 9.5,20.5C 9.5,19.8333 9.5,19.1667 9.5,18.5C 9.10433,15.9556 9.77099,13.7889 11.5,12C 24.8333,11.3333 38.1667,11.3333 51.5,12C 53.3137,14.4815 53.9804,17.3148 53.5,20.5 Z"/></g>
<g><path style="opacity:1" fill="#3fcb77" d="M 9.5,20.5 C 24.1667,20.5 38.8333,20.5 53.5,20.5C 53.5,22.1667 53.5,23.8333 53.5,25.5C 53.5,26.8333 53.5,28.1667 53.5,29.5C 49.1667,29.5 44.8333,29.5 40.5,29.5C 41.1693,25.3241 39.6693,23.9907 36,25.5C 35.7978,27.2556 35.2978,28.9223 34.5,30.5C 31.5,28.5 28.5,26.5 25.5,24.5C 23.7826,25.6685 23.1159,27.3352 23.5,29.5C 18.8333,29.5 14.1667,29.5 9.5,29.5C 9.5,27.5 9.5,25.5 9.5,23.5C 9.5,22.5 9.5,21.5 9.5,20.5 Z"/></g>
<g><path style="opacity:0.944" fill="#fef4dd" d="M 9.5,23.5 C 9.5,25.5 9.5,27.5 9.5,29.5C 9.5,30.5 9.5,31.5 9.5,32.5C 6.8127,32.6641 4.14603,32.4974 1.5,32C 0.166667,29.6667 0.166667,27.3333 1.5,25C 4.20659,24.6049 6.87326,24.1049 9.5,23.5 Z"/></g>
<g><path style="opacity:1" fill="#fbfdfc" d="M 40.5,29.5 C 40.6655,33.5138 40.4988,37.5138 40,41.5C 38.6667,42.8333 37.3333,42.8333 36,41.5C 35.7978,39.7444 35.2978,38.0777 34.5,36.5C 32.3211,37.7567 30.3211,39.2567 28.5,41C 27.2411,41.9819 25.9078,42.3152 24.5,42C 23.5363,37.9341 23.203,33.7675 23.5,29.5C 23.1159,27.3352 23.7826,25.6685 25.5,24.5C 28.5,26.5 31.5,28.5 34.5,30.5C 35.2978,28.9223 35.7978,27.2556 36,25.5C 39.6693,23.9907 41.1693,25.3241 40.5,29.5 Z"/></g>
<g><path style="opacity:0.932" fill="#fef4dc" d="M 53.5,31.5 C 55.8333,31.5 58.1667,31.5 60.5,31.5C 60.5,33.5 60.5,35.5 60.5,37.5C 58.1667,37.5 55.8333,37.5 53.5,37.5C 53.5,35.5 53.5,33.5 53.5,31.5 Z"/></g>
<g><path style="opacity:1" fill="#39bc73" d="M 9.5,29.5 C 14.1667,29.5 18.8333,29.5 23.5,29.5C 23.203,33.7675 23.5363,37.9341 24.5,42C 25.9078,42.3152 27.2411,41.9819 28.5,41C 30.3211,39.2567 32.3211,37.7567 34.5,36.5C 35.2978,38.0777 35.7978,39.7444 36,41.5C 37.3333,42.8333 38.6667,42.8333 40,41.5C 40.4988,37.5138 40.6655,33.5138 40.5,29.5C 44.8333,29.5 49.1667,29.5 53.5,29.5C 53.5,30.1667 53.5,30.8333 53.5,31.5C 53.5,33.5 53.5,35.5 53.5,37.5C 53.5,39.1667 53.5,40.8333 53.5,42.5C 53.5,44.1667 53.5,45.8333 53.5,47.5C 38.8333,47.5 24.1667,47.5 9.5,47.5C 9.5,46.1667 9.5,44.8333 9.5,43.5C 9.5,39.8333 9.5,36.1667 9.5,32.5C 9.5,31.5 9.5,30.5 9.5,29.5 Z"/></g>
<g><path style="opacity:1" fill="#36b371" d="M 9.5,47.5 C 24.1667,47.5 38.8333,47.5 53.5,47.5C 53.8928,50.5133 53.2261,53.1799 51.5,55.5C 38.1625,55.6666 24.8292,55.4999 11.5,55C 9.7215,52.8646 9.05484,50.3646 9.5,47.5 Z"/></g>
<g><path style="opacity:0.988" fill="#fef4dd" d="M 53.5,42.5 C 56.9387,42.2529 60.272,42.5863 63.5,43.5C 63.5,45.1667 63.5,46.8333 63.5,48.5C 60.826,48.8868 58.4927,49.8868 56.5,51.5C 57.6554,52.9505 59.1554,53.9505 61,54.5C 61.7581,56.7695 61.5914,58.9361 60.5,61C 54.5092,61.4995 48.5092,61.6662 42.5,61.5C 45.672,59.7481 48.672,57.7481 51.5,55.5C 53.2261,53.1799 53.8928,50.5133 53.5,47.5C 53.5,45.8333 53.5,44.1667 53.5,42.5 Z"/></g>
<g><path style="opacity:1" fill="#fef5de" d="M 9.5,43.5 C 9.5,44.8333 9.5,46.1667 9.5,47.5C 9.05484,50.3646 9.7215,52.8646 11.5,55C 24.8292,55.4999 38.1625,55.6666 51.5,55.5C 48.672,57.7481 45.672,59.7481 42.5,61.5C 28.0882,61.8156 13.7548,61.4822 -0.5,60.5C -0.5,58.5 -0.5,56.5 -0.5,54.5C 1.67937,53.8968 3.84604,53.2301 6,52.5C 6.33286,50.0658 5.16619,49.0658 2.5,49.5C 2.5,47.5 2.5,45.5 2.5,43.5C 4.83333,43.5 7.16667,43.5 9.5,43.5 Z"/></g>
</svg>
