<?xml version="1.0" encoding="UTF-8"?>
<!DOCTYPE svg PUBLIC "-//W3C//DTD SVG 1.1//EN" "http://www.w3.org/Graphics/SVG/1.1/DTD/svg11.dtd">
<svg xmlns="http://www.w3.org/2000/svg" version="1.1" width="64px" height="64px" style="shape-rendering:geometricPrecision; text-rendering:geometricPrecision; image-rendering:optimizeQuality; fill-rule:evenodd; clip-rule:evenodd" xmlns:xlink="http://www.w3.org/1999/xlink">
<g><path style="opacity:0.977" fill="#dcf8fe" d="M 63.5,13.5 C 63.5,15.1667 63.5,16.8333 63.5,18.5C 56.4567,19.5267 55.9567,21.5267 62,24.5C 63.5086,29.4929 61.6752,31.4929 56.5,30.5C 56.5,29.8333 56.5,29.1667 56.5,28.5C 52.315,10.1632 40.9816,2.99654 22.5,7C 16.3695,9.63592 11.7028,13.8026 8.5,19.5C 6.14316,19.6633 3.80982,19.4966 1.5,19C 0.166667,17 0.166667,15 1.5,13C 4.16667,12.6667 6.83333,12.3333 9.5,12C 9.95735,11.586 10.2907,11.086 10.5,10.5C 9.00943,8.98836 7.1761,7.98836 5,7.5C 4.25711,5.55942 4.42378,3.72609 5.5,2C 23.1667,1.33333 40.8333,1.33333 58.5,2C 60.6365,7.54357 58.6365,9.8769 52.5,9C 51.1667,10 51.1667,11 52.5,12C 56.2519,12.2401 59.9186,12.7401 63.5,13.5 Z"/></g>
<g><path style="opacity:0.998" fill="#31b2ef" d="M 56.5,28.5 C 51.4682,26.6301 46.1348,25.9634 40.5,26.5C 40.6641,23.8127 40.4974,21.146 40,18.5C 38.6124,17.4464 37.1124,17.2797 35.5,18C 34.5363,22.0659 34.203,26.2325 34.5,30.5C 32.5,30.5 30.5,30.5 28.5,30.5C 28.6655,26.4862 28.4988,22.4862 28,18.5C 23.848,16.5081 22.0146,17.8415 22.5,22.5C 17.4053,22.7787 12.4053,22.4454 7.5,21.5C 7.83333,20.8333 8.16667,20.1667 8.5,19.5C 11.7028,13.8026 16.3695,9.63592 22.5,7C 40.9816,2.99654 52.315,10.1632 56.5,28.5 Z"/></g>
<g><path style="opacity:1" fill="#f9fcfe" d="M 28.5,30.5 C 28.6655,34.5138 28.4988,38.5138 28,42.5C 23.3252,44.334 21.4919,42.6673 22.5,37.5C 22.5,32.5 22.5,27.5 22.5,22.5C 22.0146,17.8415 23.848,16.5081 28,18.5C 28.4988,22.4862 28.6655,26.4862 28.5,30.5 Z"/></g>
<g><path style="opacity:1" fill="#f9fcfe" d="M 40.5,26.5 C 40.5,29.1667 40.5,31.8333 40.5,34.5C 40.6641,37.1873 40.4974,39.854 40,42.5C 38.6124,43.5536 37.1124,43.7203 35.5,43C 34.5363,38.9341 34.203,34.7675 34.5,30.5C 34.203,26.2325 34.5363,22.0659 35.5,18C 37.1124,17.2797 38.6124,17.4464 40,18.5C 40.4974,21.146 40.6641,23.8127 40.5,26.5 Z"/></g>
<g><path style="opacity:0.995" fill="#29a4ec" d="M 7.5,21.5 C 12.4053,22.4454 17.4053,22.7787 22.5,22.5C 22.5,27.5 22.5,32.5 22.5,37.5C 17.6367,37.1805 12.97,37.5139 8.5,38.5C 7.38815,36.4006 6.72148,34.0673 6.5,31.5C 6.34243,28.0977 6.67577,24.7644 7.5,21.5 Z"/></g>
<g><path style="opacity:0.992" fill="#28a1ec" d="M 40.5,26.5 C 46.1348,25.9634 51.4682,26.6301 56.5,28.5C 56.5,29.1667 56.5,29.8333 56.5,30.5C 56.5,31.8333 56.5,33.1667 56.5,34.5C 51.1667,34.5 45.8333,34.5 40.5,34.5C 40.5,31.8333 40.5,29.1667 40.5,26.5 Z"/></g>
<g><path style="opacity:1" fill="#2591e8" d="M 28.5,30.5 C 30.5,30.5 32.5,30.5 34.5,30.5C 34.203,34.7675 34.5363,38.9341 35.5,43C 37.1124,43.7203 38.6124,43.5536 40,42.5C 40.4974,39.854 40.6641,37.1873 40.5,34.5C 45.8333,34.5 51.1667,34.5 56.5,34.5C 56.0372,37.221 55.3705,39.8877 54.5,42.5C 53.5,43.1667 52.5,43.8333 51.5,44.5C 38.1667,44.5 24.8333,44.5 11.5,44.5C 9.46095,43.089 8.46095,41.089 8.5,38.5C 12.97,37.5139 17.6367,37.1805 22.5,37.5C 21.4919,42.6673 23.3252,44.334 28,42.5C 28.4988,38.5138 28.6655,34.5138 28.5,30.5 Z"/></g>
<g><path style="opacity:1" fill="#ddf8fe" d="M 6.5,31.5 C 6.72148,34.0673 7.38815,36.4006 8.5,38.5C 8.46095,41.089 9.46095,43.089 11.5,44.5C 15.8928,51.6201 22.3928,55.2868 31,55.5C 40.0315,55.5727 46.8648,51.9061 51.5,44.5C 52.5,43.8333 53.5,43.1667 54.5,42.5C 56.8568,42.3367 59.1902,42.5034 61.5,43C 62.8333,45 62.8333,47 61.5,49C 59.1667,49.3333 56.8333,49.6667 54.5,50C 54.0426,50.414 53.7093,50.914 53.5,51.5C 54.6554,52.9505 56.1554,53.9505 58,54.5C 58.7429,56.4406 58.5762,58.2739 57.5,60C 40.1667,60.6667 22.8333,60.6667 5.5,60C 4.42378,58.2739 4.25711,56.4406 5,54.5C 7.1761,54.0116 9.00943,53.0116 10.5,51.5C 10.2907,50.914 9.95735,50.414 9.5,50C 6.57379,49.7822 3.74046,49.2822 1,48.5C 0.333333,46.8333 0.333333,45.1667 1,43.5C 7,41.5 7,39.5 1,37.5C -0.508557,32.5071 1.32478,30.5071 6.5,31.5 Z"/></g>
<g><path style="opacity:1" fill="#2582e5" d="M 11.5,44.5 C 24.8333,44.5 38.1667,44.5 51.5,44.5C 46.8648,51.9061 40.0315,55.5727 31,55.5C 22.3928,55.2868 15.8928,51.6201 11.5,44.5 Z"/></g>
</svg>
